<?xml version="1.0" encoding="utf-8"?>
<svg version="1.1" id="Capa_1" x="0px" y="0px" width="417.031px" height="417.031px" viewBox="0 0 417.031 417.031" style="enable-background:new 0 0 417.031 417.031;" xmlns="http://www.w3.org/2000/svg">
  <g>
    <path d="M 219.683 92.146 C 219.404 91.831 219.163 91.519 218.834 91.221 C 215.19 87.949 215.092 88.915 219.081 85.238 C 222.036 82.526 225.622 80.404 228.871 78.058 C 237.467 71.845 243.125 63.524 246.95 53.659 C 255.532 31.509 230.244 16.206 217.554 3.097 C 208.386 -6.388 193.951 8.079 203.11 17.544 C 210.186 24.869 219.3 30.808 225.459 38.951 C 232.356 48.067 221.846 58.125 214.645 63.2 C 203.512 71.044 193.888 81.462 196.112 92.634 C 146.148 97.302 99.952 124.686 99.952 172.961 L 99.952 308.471 C 99.952 368.333 148.65 417.033 208.516 417.033 C 268.379 417.033 317.082 368.333 317.082 308.471 L 317.082 172.95 C 317.085 120.247 268.05 94.723 219.683 92.146 Z M 120.391 172.95 C 120.391 137.117 159.289 116.369 199.577 112.923 L 199.577 237.905 C 162.826 236.055 132.988 227.683 120.391 223.596 L 120.391 172.95 Z M 296.648 308.461 C 296.648 357.065 257.111 396.594 208.519 396.594 C 159.929 396.594 120.391 357.065 120.391 308.461 L 120.391 245.08 C 138.64 250.596 172.991 258.962 213.593 258.962 C 239.596 258.962 268.149 255.483 296.649 245.676 L 296.649 308.461 Z M 296.648 223.94 C 270.804 233.823 244.411 237.686 220.013 238.211 L 220.013 112.621 C 259.42 114.984 296.648 133.885 296.648 172.958 L 296.648 223.94 Z M 289.735 216.203 C 289.735 216.203 243.047 229.276 227.168 226.474 L 227.168 122.813 C 269.429 130.753 296.625 143.533 289.735 216.203 Z" style="fill-rule: nonzero; fill: rgb(255, 255, 255);"/>
  </g>
  <g/>
  <g/>
  <g/>
  <g/>
  <g/>
  <g/>
  <g/>
  <g/>
  <g/>
  <g/>
  <g/>
  <g/>
  <g/>
  <g/>
  <g/>
  <g transform="matrix(1, 0, 0, 1, 229.389824, -0.001622)">
    <path d="M 70.781 223.971 C 73.947 223.371 10.418 244.072 -14.603 242.009 L -10.719 108.248 C 36.063 106.167 89.283 131.046 70.781 223.971 Z" style="fill-rule: nonzero; fill: rgb(255, 255, 255);"/>
  </g>
</svg>